<?xml version="1.0" encoding="utf-8"?>
<!-- Generator: Adobe Illustrator 21.1.0, SVG Export Plug-In . SVG Version: 6.00 Build 0)  -->
<svg version="1.1" id="Layer_1" xmlns="http://www.w3.org/2000/svg" xmlns:xlink="http://www.w3.org/1999/xlink" x="0px" y="0px"
	 viewBox="0 0 292.654 63.404" style="enable-background:new 0 0 292.654 63.404;" xml:space="preserve">
<style type="text/css">
	.st0{fill:#B3945C;}
</style>
<g>
	<g>
		<path class="st0" d="M10.951,21.792c-3.205,0-5.831-1.014-7.879-3.041C1.024,16.723,0,14.118,0,10.934
			C0,7.74,0.936,5.129,2.809,3.102C4.681,1.074,7.084,0.06,10.018,0.06c1.932,0.01,3.654,0.315,5.167,0.916
			c0.451,0.181,0.798,0.235,1.044,0.165c0.245-0.07,0.508-0.3,0.789-0.691l0.285-0.391h0.781l0.211,6.684h-0.781
			c-0.411-1.712-1.199-3.011-2.365-3.898c-1.166-0.886-2.67-1.329-4.512-1.329c-2.102,0-3.792,0.861-5.067,2.583
			c-1.276,1.722-1.915,4-1.915,6.834c0,2.894,0.698,5.184,2.095,6.871c1.396,1.687,3.286,2.531,5.668,2.531
			c1.542-0.02,2.873-0.361,3.994-1.022v-5.136c0-1.282-0.16-2.105-0.481-2.471c-0.321-0.365-1.077-0.583-2.269-0.653v-0.751h3.969
			h3.968v0.751c-0.832,0.05-1.361,0.258-1.587,0.624c-0.225,0.365-0.338,1.199-0.338,2.5v5.497
			C16.569,21.086,13.995,21.792,10.951,21.792z"/>
		<path class="st0" d="M28.34,16.716V5.136c0-1.612-0.16-2.645-0.48-3.101c-0.321-0.456-1.077-0.723-2.268-0.804V0.481h4.371h3.665
			c2.753,0,4.846,0.483,6.278,1.45c1.432,0.966,2.147,2.38,2.147,4.243c0,1.782-0.746,3.174-2.238,4.175
			c-0.821,0.54-1.813,0.946-2.974,1.216l5.227,6.818c0.721,0.921,1.279,1.512,1.674,1.773c0.396,0.26,0.969,0.416,1.72,0.465v0.751
			h-1.692h-3.535l-7.176-9.522h-1.459v5.978c0,1.142,0.16,1.875,0.481,2.2c0.32,0.326,1.076,0.523,2.267,0.593v0.751h-4.37h-4.386
			v-0.751c1.191-0.08,1.947-0.35,2.268-0.811C28.18,19.359,28.34,18.328,28.34,16.716z M31.599,10.588h2.028
			c1.562,0,2.748-0.393,3.559-1.179c0.811-0.786,1.217-1.939,1.217-3.462c0-1.271-0.428-2.277-1.284-3.019
			c-0.856-0.741-2.02-1.111-3.492-1.111h-0.24c-0.741,0-1.224,0.113-1.45,0.338c-0.225,0.225-0.338,0.709-0.338,1.449V10.588z"/>
		<path class="st0" d="M52.46,17.827L59.835,0h0.345h0.36l7.585,18.383c0.38,0.921,0.726,1.512,1.036,1.773
			c0.311,0.26,0.841,0.416,1.592,0.465v0.751h-3.841h-3.841v-0.751c0.901,0,1.472-0.173,1.712-0.518
			c0.24-0.345,0.195-0.919-0.135-1.72l-1.657-4.055h-7.556l-1.296,3.214c-0.431,1.042-0.511,1.8-0.241,2.275
			c0.271,0.476,0.936,0.743,1.998,0.803v0.751h-3.114h-3.129v-0.751c0.75-0.12,1.292-0.345,1.622-0.676
			C51.594,19.625,51.989,18.919,52.46,17.827z M55.989,12.991h6.467l-3.237-7.885h-0.001L55.989,12.991z"/>
		<path class="st0" d="M80.545,16.148c0,1.901,0.16,3.112,0.48,3.632c0.32,0.521,1.076,0.8,2.268,0.84v0.751h-3.514h-3.515v-0.751
			c1.191-0.04,1.947-0.32,2.268-0.841c0.32-0.521,0.48-1.732,0.48-3.635V2.853c-0.471-0.571-0.861-0.956-1.171-1.156
			c-0.411-0.26-1.001-0.416-1.772-0.466V0.481h2.644h2.643L92.92,15.315V5.706c0-1.901-0.16-3.113-0.48-3.633
			c-0.321-0.52-1.077-0.8-2.268-0.841V0.481h3.515h3.514v0.751c-1.191,0.04-1.947,0.321-2.268,0.841
			c-0.321,0.521-0.481,1.732-0.481,3.634v16.145h-0.285h-0.286L80.545,4.742V16.148z"/>
		<path class="st0" d="M105.34,16.716V5.136c0-1.622-0.16-2.661-0.48-3.116c-0.32-0.456-1.076-0.718-2.268-0.788V0.481h4.37h3.8
			c3.875,0,6.903,0.941,9.086,2.824c2.183,1.882,3.274,4.496,3.274,7.84c0,3.204-1.119,5.709-3.357,7.517
			c-2.238,1.808-5.349,2.711-9.334,2.711h-3.469h-4.37v-0.751c1.191-0.07,1.947-0.335,2.268-0.796
			C105.18,19.374,105.34,18.338,105.34,16.716z M108.6,18.278c0,0.751,0.105,1.232,0.315,1.442c0.209,0.21,0.69,0.316,1.44,0.316
			h0.044c2.83,0,5.037-0.786,6.622-2.358c1.585-1.572,2.377-3.764,2.377-6.578c0-2.923-0.762-5.206-2.287-6.848
			s-3.651-2.463-6.38-2.463h-0.345c-0.741,0-1.224,0.113-1.449,0.338c-0.226,0.226-0.338,0.708-0.338,1.45V18.278z"/>
	</g>
	<g>
		<path class="st0" d="M146.223,17.827L153.597,0h0.345h0.36l7.585,18.383c0.38,0.921,0.726,1.512,1.036,1.773
			c0.311,0.26,0.841,0.416,1.592,0.465v0.751h-3.841h-3.841v-0.751c0.901,0,1.472-0.173,1.712-0.518
			c0.24-0.345,0.195-0.919-0.135-1.72l-1.657-4.055h-7.556l-1.296,3.214c-0.431,1.042-0.511,1.8-0.241,2.275
			c0.27,0.476,0.936,0.743,1.998,0.803v0.751h-3.114h-3.129v-0.751c0.75-0.12,1.291-0.345,1.622-0.676
			C145.356,19.625,145.752,18.919,146.223,17.827z M149.752,12.991h6.467l-3.237-7.885h-0.001L149.752,12.991z"/>
		<path class="st0" d="M174.308,16.148c0,1.901,0.16,3.112,0.48,3.632c0.32,0.521,1.076,0.8,2.268,0.84v0.751h-3.514h-3.515v-0.751
			c1.191-0.04,1.947-0.32,2.268-0.841c0.32-0.521,0.48-1.732,0.48-3.635V2.853c-0.471-0.571-0.861-0.956-1.171-1.156
			c-0.411-0.26-1.002-0.416-1.773-0.466V0.481h2.644h2.643l11.564,14.834V5.706c0-1.901-0.16-3.113-0.48-3.633
			c-0.321-0.52-1.077-0.8-2.268-0.841V0.481h3.515h3.514v0.751c-1.191,0.04-1.947,0.321-2.268,0.841
			c-0.321,0.521-0.481,1.732-0.481,3.634v16.145h-0.285h-0.286l-13.336-17.11V16.148z"/>
		<path class="st0" d="M198.683,16.716V5.136c0-1.622-0.16-2.661-0.481-3.116c-0.321-0.456-1.077-0.718-2.268-0.788V0.481h4.371
			h4.385v0.751c-1.191,0.07-1.947,0.268-2.268,0.593c-0.321,0.325-0.48,1.059-0.48,2.2v6.397c1.172-0.981,2.399-2.082,3.681-3.303
			c1.031-0.981,1.978-1.917,2.84-2.808c0.991-1.031,1.429-1.782,1.314-2.253c-0.115-0.471-0.803-0.746-2.065-0.826V0.481h3.963
			h3.963v0.751c-1.131,0.18-1.98,0.434-2.546,0.759c-0.565,0.325-1.334,1.004-2.305,2.035c-1.182,1.271-2.538,2.623-4.07,4.053
			l-1.577,1.486l8.08,8.818c0.861,0.921,1.509,1.512,1.945,1.773c0.436,0.26,1.029,0.416,1.78,0.465v0.751h-4.608h-4.608v-0.751
			c1.111,0,1.747-0.173,1.907-0.518c0.16-0.345-0.125-0.919-0.856-1.72l-6.065-6.73l-0.773,0.663v5.512c0,1.142,0.16,1.875,0.48,2.2
			c0.32,0.326,1.076,0.523,2.268,0.593v0.751h-4.37h-4.386v-0.751c1.191-0.07,1.947-0.335,2.268-0.796
			C198.523,19.374,198.683,18.338,198.683,16.716z"/>
		<path class="st0" d="M224.124,17.827L231.499,0h0.345h0.36l7.584,18.383c0.381,0.921,0.726,1.512,1.037,1.773
			c0.311,0.26,0.841,0.416,1.592,0.465v0.751h-3.842h-3.84v-0.751c0.901,0,1.471-0.173,1.711-0.518
			c0.24-0.345,0.195-0.919-0.135-1.72l-1.656-4.055h-7.556l-1.296,3.214c-0.431,1.042-0.511,1.8-0.241,2.275
			c0.271,0.476,0.936,0.743,1.998,0.803v0.751h-3.114h-3.129v-0.751c0.751-0.12,1.292-0.345,1.622-0.676
			C223.258,19.625,223.653,18.919,224.124,17.827z M227.653,12.991h6.467l-3.237-7.885h-0.001L227.653,12.991z"/>
		<path class="st0" d="M250.241,16.716V5.136c0-1.612-0.16-2.645-0.48-3.101c-0.32-0.456-1.076-0.723-2.268-0.804V0.481h4.371h3.664
			c2.754,0,4.846,0.483,6.277,1.45c1.432,0.966,2.148,2.38,2.148,4.243c0,1.782-0.746,3.174-2.238,4.175
			c-0.82,0.54-1.813,0.946-2.974,1.216l5.227,6.818c0.721,0.921,1.278,1.512,1.675,1.773c0.395,0.26,0.969,0.416,1.719,0.465v0.751
			h-1.691h-3.535l-7.176-9.522h-1.459v5.978c0,1.142,0.16,1.875,0.48,2.2c0.32,0.326,1.076,0.523,2.268,0.593v0.751h-4.37h-4.386
			v-0.751c1.191-0.08,1.947-0.35,2.268-0.811C250.081,19.359,250.241,18.328,250.241,16.716z M253.501,10.588h2.027
			c1.563,0,2.748-0.393,3.559-1.179c0.812-0.786,1.217-1.939,1.217-3.462c0-1.271-0.428-2.277-1.283-3.019
			c-0.856-0.741-2.021-1.111-3.492-1.111h-0.24c-0.741,0-1.225,0.113-1.449,0.338c-0.226,0.225-0.338,0.709-0.338,1.449V10.588z"/>
		<path class="st0" d="M274.361,17.827L281.735,0h0.346h0.36l7.585,18.383c0.38,0.921,0.725,1.512,1.035,1.773
			c0.311,0.26,0.842,0.416,1.593,0.465v0.751h-3.841h-3.842v-0.751c0.901,0,1.473-0.173,1.713-0.518
			c0.24-0.345,0.195-0.919-0.135-1.72l-1.657-4.055h-7.556l-1.297,3.214c-0.431,1.042-0.511,1.8-0.24,2.275
			c0.27,0.476,0.935,0.743,1.997,0.803v0.751h-3.114h-3.129v-0.751c0.75-0.12,1.291-0.345,1.621-0.676
			C273.495,19.625,273.891,18.919,274.361,17.827z M277.89,12.991h6.468l-3.237-7.885h-0.001L277.89,12.991z"/>
	</g>
</g>
<g>
	<polygon class="st0" points="110.019,51.501 111.96,55.412 116.282,56.031 113.162,59.085 113.91,63.387 110.041,61.364 
		106.181,63.404 106.909,59.099 103.776,56.059 108.095,55.421 	"/>
	<polygon class="st0" points="128.152,51.501 130.093,55.412 134.415,56.031 131.295,59.085 132.043,63.387 128.174,61.364 
		124.314,63.404 125.042,59.099 121.909,56.059 126.228,55.421 	"/>
	<polygon class="st0" points="146.285,51.501 148.226,55.412 152.548,56.031 149.429,59.085 150.176,63.387 146.307,61.364 
		142.447,63.404 143.175,59.099 140.042,56.059 144.362,55.421 	"/>
	<polygon class="st0" points="164.418,51.501 166.359,55.412 170.682,56.031 167.562,59.085 168.31,63.387 164.44,61.364 
		160.58,63.404 161.309,59.099 158.175,56.059 162.495,55.421 	"/>
	<polygon class="st0" points="182.552,51.501 184.493,55.412 188.815,56.031 185.695,59.085 186.443,63.387 182.574,61.364 
		178.713,63.404 179.442,59.099 176.309,56.059 180.628,55.421 	"/>
</g>
<g>
	<path class="st0" d="M30.114,31.581h1.769v4.015h4.647v-4.015h1.769v9.94H36.53v-4.408h-4.647v4.408h-1.769V31.581z"/>
	<path class="st0" d="M46.04,31.328c3.102,0,5.363,2.007,5.363,5.194c0,3.102-2.261,5.25-5.363,5.25
		c-3.061,0-5.321-2.148-5.321-5.25C40.719,33.336,42.979,31.328,46.04,31.328z M46.054,40.187c2.036,0,3.426-1.544,3.426-3.664
		c0-2.05-1.362-3.636-3.426-3.636c-2.05,0-3.411,1.587-3.411,3.636C42.642,38.643,44.033,40.187,46.054,40.187z"/>
	<path class="st0" d="M55.411,33.125h-3.046v-1.544h7.862v1.544H57.18v8.395h-1.769V33.125z"/>
	<path class="st0" d="M62.084,31.581h6.584v1.544h-4.815v2.527h4.563v1.488h-4.563v2.808h5.068v1.572h-6.837V31.581z"/>
	<path class="st0" d="M71.355,31.581h1.769v8.367h4.226v1.572h-5.995V31.581z"/>
	<path class="st0" d="M90.019,39.148l2.316,2.373h-2.246l-1.095-1.137c-0.66,0.772-1.531,1.334-2.977,1.334
		c-1.755,0-3.327-0.997-3.327-2.892c0-1.474,1.053-2.345,2.162-2.822c-0.66-0.674-1.067-1.376-1.067-2.232
		c0-1.699,1.432-2.443,2.808-2.443c1.432,0,2.752,0.786,2.752,2.414c0,1.278-0.913,2.12-2.036,2.639l1.628,1.699l1.151-1.811h1.924
		L90.019,39.148z M85.808,37.084c-0.73,0.267-1.376,0.716-1.376,1.671c0,0.983,0.884,1.559,1.643,1.559
		c0.814,0,1.376-0.365,1.853-1.025L85.808,37.084z M85.457,33.799c0,0.561,0.323,1.081,0.884,1.586
		c0.772-0.323,1.432-0.842,1.432-1.586c0-0.604-0.478-1.109-1.151-1.109C85.976,32.69,85.457,33.153,85.457,33.799z"/>
	<path class="st0" d="M105.611,33.911c-0.519-0.716-1.46-1.025-2.26-1.025c-2.05,0-3.44,1.587-3.44,3.636
		c0,2.162,1.32,3.664,3.369,3.664c1.067,0,1.909-0.464,2.415-1.152l1.417,0.997c-0.87,1.095-2.162,1.741-3.847,1.741
		c-3.102,0-5.306-2.148-5.306-5.25c0-3.187,2.33-5.194,5.391-5.194c1.292,0,2.822,0.477,3.608,1.516L105.611,33.911z"/>
	<path class="st0" d="M113.591,31.328c3.102,0,5.363,2.007,5.363,5.194c0,3.102-2.26,5.25-5.363,5.25
		c-3.061,0-5.321-2.148-5.321-5.25C108.27,33.336,110.53,31.328,113.591,31.328z M113.605,40.187c2.036,0,3.426-1.544,3.426-3.664
		c0-2.05-1.362-3.636-3.426-3.636c-2.05,0-3.411,1.587-3.411,3.636C110.193,38.643,111.583,40.187,113.605,40.187z"/>
	<path class="st0" d="M121.376,31.581h2.344l4.619,7.441h0.028v-7.441h1.769v9.94h-2.246l-4.717-7.68h-0.028v7.68h-1.769V31.581z"/>
	<path class="st0" d="M131.799,31.581h1.98l2.737,7.651h0.057l2.765-7.651h1.91l-3.987,9.94h-1.53L131.799,31.581z"/>
	<path class="st0" d="M142.909,31.581h6.584v1.544h-4.815v2.527h4.563v1.488h-4.563v2.808h5.068v1.572h-6.837V31.581z"/>
	<path class="st0" d="M152.18,31.581h2.345l4.619,7.441h0.028v-7.441h1.769v9.94h-2.246l-4.717-7.68h-0.028v7.68h-1.769V31.581z"/>
	<path class="st0" d="M165.846,33.125H162.8v-1.544h7.862v1.544h-3.047v8.395h-1.769V33.125z"/>
	<path class="st0" d="M172.519,31.581h1.769v9.94h-1.769V31.581z"/>
	<path class="st0" d="M182.027,31.328c3.102,0,5.363,2.007,5.363,5.194c0,3.102-2.261,5.25-5.363,5.25
		c-3.061,0-5.321-2.148-5.321-5.25C176.706,33.336,178.966,31.328,182.027,31.328z M182.04,40.187c2.036,0,3.426-1.544,3.426-3.664
		c0-2.05-1.362-3.636-3.426-3.636c-2.05,0-3.411,1.587-3.411,3.636C178.629,38.643,180.019,40.187,182.04,40.187z"/>
	<path class="st0" d="M189.811,31.581h2.345l4.619,7.441h0.028v-7.441h1.769v9.94h-2.246l-4.717-7.68h-0.028v7.68h-1.769V31.581z"/>
	<path class="st0" d="M212.857,33.911c-0.52-0.716-1.46-1.025-2.26-1.025c-2.05,0-3.44,1.587-3.44,3.636
		c0,2.162,1.32,3.664,3.369,3.664c1.067,0,1.909-0.464,2.415-1.152l1.418,0.997c-0.87,1.095-2.162,1.741-3.847,1.741
		c-3.103,0-5.306-2.148-5.306-5.25c0-3.187,2.33-5.194,5.391-5.194c1.291,0,2.822,0.477,3.608,1.516L212.857,33.911z"/>
	<path class="st0" d="M216.163,31.581h6.584v1.544h-4.815v2.527h4.563v1.488h-4.563v2.808H223v1.572h-6.837V31.581z"/>
	<path class="st0" d="M225.433,31.581h2.344l4.619,7.441h0.028v-7.441h1.769v9.94h-2.246l-4.717-7.68h-0.028v7.68h-1.769V31.581z"/>
	<path class="st0" d="M239.1,33.125h-3.046v-1.544h7.862v1.544h-3.046v8.395H239.1V33.125z"/>
	<path class="st0" d="M245.773,31.581h6.584v1.544h-4.815v2.527h4.563v1.488h-4.563v2.808h5.068v1.572h-6.837V31.581z"/>
	<path class="st0" d="M255.043,31.581h3.453c1.867,0,3.664,0.744,3.664,2.85c0,1.432-0.884,2.372-2.274,2.681l2.654,4.408h-2.134
		l-2.302-4.212h-1.292v4.212h-1.769V31.581z M258.258,35.863c0.997,0,2.134-0.238,2.134-1.446c0-1.081-1.067-1.348-1.979-1.348h-1.6
		v2.794H258.258z"/>
</g>
</svg>
